<svg 
height="512"
viewBox="0 0 512 512" 
fill='#fff'
width="512" 
xmlns="http://www.w3.org/2000/svg">
    <g>
        <path 
            d="m432 79h-32v-15a8 8 0 0 0 -8-8h-64v-20a28.031 28.031 0 0 0 -28-28h-88a28.031 28.031 0 0 0 -28 28v20h-64a8 8 0 0 0 -8 8v15h-32a8 8 0 0 0 -8 8v57a8 8 0 0 0 8 8h24v304a48.051 48.051 0 0 0 48 48h208a48.051 48.051 0 0 0 48-48v-304h24a8 8 0 0 0 8-8v-57a8 8 0 0 0 -8-8zm-232-43a12.01 12.01 0 0 1 12-12h88a12.01 12.01 0 0 1 12 12v20h-112zm-72 36h256v7h-256zm264 384a32.03 32.03 0 0 1 -32 32h-208a32.03 32.03 0 0 1 -32-32v-304h272zm32-320h-336v-41h336z"/>
        <path d="m240 448h32a8 8 0 0 0 8-8v-256a8 8 0 0 0 -8-8h-32a8 8 0 0 0 -8 8v256a8 8 0 0 0 8 8zm8-256h16v240h-16z"/>
        <path d="m152 448h32a8 8 0 0 0 8-8v-256a8 8 0 0 0 -8-8h-32a8 8 0 0 0 -8 8v256a8 8 0 0 0 8 8zm8-256h16v240h-16z"/>
        <path d="m328 448h32a8 8 0 0 0 8-8v-256a8 8 0 0 0 -8-8h-32a8 8 0 0 0 -8 8v256a8 8 0 0 0 8 8zm8-256h16v240h-16z"/>
    </g>
</svg>